<svg id="Layer_1" data-name="Layer 1" xmlns="http://www.w3.org/2000/svg" viewBox="0 0 180.93 183.89"><defs><style>.cls-1{fill:#FFFFFF;}</style></defs><path class="cls-1" d="M94.7,16.3a156.19,156.19,0,0,1-8.2,15.2C84,35.3,82,39,82,39.7c0,2.2,2.1,2.5,5.8.6,2.7-1.3,6-1.8,12.2-1.8s9.5.5,12.2,1.8c3.6,1.8,5.8,1.6,5.8-.4,0-.5-2.6-5.3-5.8-10.7A145.07,145.07,0,0,1,104,13.7c-1.5-3.5-3-5.7-3.9-5.7S97.1,11.1,94.7,16.3Z" transform="translate(-9.42 -8)"/><path class="cls-1" d="M72.8,48.7a95.51,95.51,0,0,1-6,10.9c-4.4,7.1-4.8,8.9-1.5,8C75,64.8,76.8,64.7,82,66.4c2.9.9,5.5,1.4,5.9,1.1s-.7-2.8-2.2-5.3-4.2-7.7-6-11.4-3.6-6.8-4-6.8S73.9,46.1,72.8,48.7Z" transform="translate(-9.42 -8)"/><path class="cls-1" d="M96.2,45.2c-.9.9-1.2,6.9-1.2,21V86l2.5,1.2a5.51,5.51,0,0,0,5,0L105,86V66.2c0-21.2-.2-22.2-5-22.2A6.15,6.15,0,0,0,96.2,45.2Z" transform="translate(-9.42 -8)"/><path class="cls-1" d="M120.3,50.8c-1.8,3.7-4.5,8.8-6,11.4s-2.5,4.9-2.2,5.3,3-.2,5.9-1.1c4.4-1.4,5.9-1.5,9.8-.5,2.6.7,5.7,1.5,7,1.8,3.2.8,2.8-1-1.6-8.1a95.51,95.51,0,0,1-6-10.9c-1.1-2.6-2.5-4.7-2.9-4.7S122.1,47,120.3,50.8Z" transform="translate(-9.42 -8)"/><path class="cls-1" d="M12.3,67.1a5.13,5.13,0,0,0-2.8,2.8c-.8,2.7,4.6,16.3,9.5,23.6l4,6-5.9.3c-8.1.4-9.1,1.8-5.2,7.6a45.52,45.52,0,0,0,16.9,14.4c5.6,2.8,5.2,4-1.5,4.1-3.1.1-6.3,2.2-6.3,4.3,0,3,12.6,11.7,22.9,15.8a39.16,39.16,0,0,1,9.1,5c7.9,6.3,20.7,10.9,22.4,8.1.4-.6-.4-4-1.9-7.6-2-5.1-2.3-6.9-1.5-8.5,2.1-3.8,5.6-1.5,7.5,5a26.54,26.54,0,0,0,3.1,6l2.4,3.6-4.2,8.2c-3.8,7.4-4.2,9-4.3,15.6,0,11.2,2.7,13.2,9.8,7.1l4.1-3.5,3.6,3.5c4.6,4.5,7.4,4.5,12,0l3.6-3.5,4.1,3.5c5.3,4.5,7,4.4,9-.2,2.3-5.7,1.1-13.2-3.7-22.8l-4-7.9,2.3-3.6a34.88,34.88,0,0,0,3.7-7.5c1.9-5.8,5-7.3,7-3.5.8,1.6.5,3.4-1.5,8.5-1.5,3.6-2.3,7-1.9,7.6,1.7,2.8,14.5-1.8,22.4-8.1a39.16,39.16,0,0,1,9.1-5c10.3-4.1,22.9-12.8,22.9-15.8,0-1.8-3.1-4.2-5.4-4.2a38.65,38.65,0,0,1-5.4-.6c-3.1-.6-3.1-.6,2.7-3.5,10-5,19.8-15.2,18.9-19.6-.2-1.4-1.6-1.9-6.6-2.3l-6.2-.5,4-6c5.8-8.6,10.5-21.2,9.1-24.2-1-2.2-2.7-2.8-6.1-2.3-2.3.3-28.1,15.8-31.2,18.8a21.16,21.16,0,0,0-4.4,7.6c-4.2,12.8-10.6,21.4-18.9,25.2-7.6,3.6-8.5,3.3-8.5-2.4a16.91,16.91,0,0,1,2-8c1.9-3.1,2.8-10.2,1.3-10.2a15.72,15.72,0,0,0-3.3,1.5c-3.3,1.9-7.8,1.9-15-.2-5.6-1.5-6.4-1.5-12,0-7.2,2.1-11.7,2.1-15,.2A18.63,18.63,0,0,0,75.8,98c-1.6,0-.7,7.1,1.2,10.2a16.91,16.91,0,0,1,2,8c0,5.7-.9,6-8.5,2.4-8.3-3.8-14.7-12.4-18.9-25.2-2.3-7.1-5.4-9.6-28.1-22.6C15.8,66.4,14.9,66.1,12.3,67.1ZM91.8,123c2.3,1.7,4.2,3.4,4.2,3.9,0,1.5-4.1,2-6.5.9-3.6-1.6-5.6-7.8-2.6-7.8A23.52,23.52,0,0,1,91.8,123Zm22.2-.8a6.07,6.07,0,0,1-6.1,5.8c-4.4,0-4.3-1.7.2-5C113.1,119.4,114,119.3,114,122.2Zm-11.8,10.5a5.24,5.24,0,0,1,1.8,2.9c0,1.7-3.2,8.4-4,8.4s-4-6.6-4-8.2c0-1.2,2.9-4.8,3.8-4.8A6.5,6.5,0,0,1,102.2,132.7Z" transform="translate(-9.42 -8)"/><path class="cls-1" d="M73.2,71.2c-.7.7-1.2,4.1-1.2,9V88h7.1l-.3-8.8c-.3-7.8-.5-8.7-2.3-9A4.66,4.66,0,0,0,73.2,71.2Z" transform="translate(-9.42 -8)"/><path class="cls-1" d="M121.7,70.7c-.4.3-.7,4.4-.7,9V88h7V80.2c0-4.7-.5-8.3-1.2-9C125.5,69.9,122.7,69.6,121.7,70.7Z" transform="translate(-9.42 -8)"/></svg>